# xmcd CD database file
#
# Track frame offsets:
#	183
#	59940
#	96313
#	121813
#	163690
#	212195
#
# Disc length: 3158 seconds
#
# Revision: 1
# Processed by: cddbd v1.5.2PL0 Copyright (c) Steve Scherf et al.
# Submitted via: CDex 1.70beta2
#
DISCID=590c5406
DTITLE=Eric Dolphy - Stormy Weather - les genies du jazz vol6  1
DYEAR=1900
DGENRE=Jazz
TTITLE0=Stormy Weather
TTITLE1=Quiet Please
TTITLE2=Moods in a Free Time
TTITLE3=Re-incarnation of a Love Bird
TTITLE4=Body and Soul
TTITLE5=Hazy Hues
EXTD=
EXTT0=
EXTT1=
EXTT2=
EXTT3=
EXTT4=
EXTT5=
PLAYORDER=
